<?xml version="1.0" standalone="no"?>
<!DOCTYPE svg PUBLIC "-//W3C//DTD SVG 20010904//EN"
 "http://www.w3.org/TR/2001/REC-SVG-20010904/DTD/svg10.dtd">
<svg version="1.0" xmlns="http://www.w3.org/2000/svg"
 width="1032.000000pt" height="1032.000000pt" viewBox="0 0 1032.000000 1032.000000"
 preserveAspectRatio="xMidYMid meet">
<metadata>
Created by potrace 1.11, written by Peter Selinger 2001-2013
</metadata>
<g transform="translate(0.000000,1032.000000) scale(0.100000,-0.100000)"
fill="#000000" stroke="none">
<path d="M1267 8984 c51 -25 74 -92 69 -202 -2 -49 -7 -95 -10 -101 -4 -6 -10
-24 -12 -39 -3 -15 -12 -56 -20 -92 -9 -36 -18 -76 -20 -90 -3 -14 -9 -41 -14
-60 -5 -19 -12 -53 -16 -75 -3 -22 -8 -43 -10 -46 -5 -9 -66 -281 -67 -301 -1
-10 -5 -18 -10 -18 -4 0 -6 -4 -3 -9 3 -4 1 -23 -5 -42 -5 -19 -12 -50 -15
-69 -3 -19 -17 -82 -31 -140 -28 -119 -31 -133 -38 -175 -3 -16 -9 -39 -12
-50 -4 -11 -8 -27 -9 -35 -10 -48 -14 -67 -18 -87 -4 -13 -8 -31 -10 -41 -2
-9 -9 -35 -14 -57 -6 -22 -13 -53 -16 -70 -9 -51 -17 -88 -21 -95 -2 -4 -7
-22 -10 -41 -3 -19 -22 -104 -41 -189 -20 -85 -38 -164 -40 -175 -2 -11 -6
-31 -10 -45 -3 -14 -7 -34 -9 -45 -3 -11 -9 -40 -15 -65 -7 -25 -13 -54 -16
-65 -2 -11 -6 -31 -9 -45 -3 -14 -7 -34 -9 -46 -2 -11 -12 -52 -21 -90 -16
-69 -25 -110 -26 -119 0 -2 -5 -19 -10 -37 -5 -18 -12 -49 -15 -68 -3 -19 -8
-38 -10 -41 -2 -3 -6 -19 -8 -35 -3 -16 -8 -38 -10 -49 -4 -20 -7 -34 -45
-195 -11 -47 -23 -100 -26 -119 -3 -19 -8 -37 -10 -40 -2 -4 -6 -26 -10 -51
-4 -25 -9 -48 -12 -52 -2 -5 -7 -21 -9 -36 -5 -24 -16 -74 -30 -137 -3 -11 -7
-29 -9 -40 -3 -11 -21 -92 -41 -180 -19 -88 -37 -168 -39 -178 -2 -10 -6 -26
-9 -35 -3 -9 -8 -30 -11 -47 -2 -16 -7 -39 -10 -50 -12 -48 -55 -243 -60 -270
-3 -16 -11 -48 -17 -70 -5 -22 -12 -49 -14 -60 -7 -34 -11 -54 -54 -240 -23
-99 -43 -190 -45 -202 -1 -11 -6 -30 -10 -42 -3 -11 -9 -33 -11 -48 -3 -16
-10 -48 -15 -73 -6 -25 -13 -56 -15 -70 -3 -14 -10 -43 -16 -65 -5 -22 -12
-49 -14 -60 -4 -20 -6 -31 -24 -115 -16 -70 -20 -88 -36 -159 -9 -36 -18 -77
-20 -91 -3 -14 -7 -32 -10 -40 -3 -8 -8 -26 -10 -40 -4 -23 -9 -48 -30 -135
-4 -16 -8 -34 -9 -40 -2 -5 -10 -44 -19 -86 -19 -82 -17 -222 3 -242 6 -6 11
-17 11 -24 0 -17 34 -58 72 -88 13 -10 63 -30 103 -42 11 -3 492 -7 1068 -8
929 -1 1045 0 1020 13 -37 20 -56 47 -69 102 -13 57 -10 130 10 212 9 35 18
74 20 88 2 14 14 66 26 115 11 50 23 104 26 120 3 17 9 44 14 60 5 17 12 46
15 65 3 19 8 43 11 52 3 9 7 25 9 35 2 10 13 61 25 113 12 52 23 103 25 113 2
10 6 26 9 35 3 9 8 33 11 52 3 19 15 71 25 115 10 44 28 123 40 175 12 52 24
106 27 120 3 14 7 30 8 36 2 6 18 75 36 155 18 79 33 152 33 162 0 9 3 17 6
17 4 0 7 6 7 13 0 6 4 28 8 47 4 19 9 44 11 55 5 29 9 48 17 70 3 11 8 31 11
45 2 14 11 55 20 93 9 37 18 82 21 100 3 17 8 40 11 49 5 17 12 47 20 88 3 14
7 33 10 42 3 10 7 28 10 40 4 26 12 58 19 88 3 11 7 30 10 41 2 12 7 24 9 27
3 2 154 5 337 6 l331 1 -6 -35 c-6 -35 -11 -59 -22 -102 -3 -13 -7 -34 -10
-48 -3 -14 -16 -74 -30 -135 -14 -60 -28 -121 -30 -134 -3 -12 -20 -89 -39
-170 -18 -80 -35 -159 -38 -176 -3 -16 -8 -37 -11 -45 -3 -8 -8 -27 -11 -42
-9 -50 -15 -79 -31 -147 -9 -36 -17 -73 -19 -81 -7 -32 -36 -156 -40 -175 -3
-11 -7 -29 -9 -40 -2 -11 -20 -92 -40 -180 -20 -89 -38 -171 -41 -184 -2 -12
-7 -31 -10 -41 -6 -19 -12 -44 -21 -95 -2 -16 -10 -48 -16 -70 -6 -22 -12 -53
-15 -70 -2 -16 -6 -37 -9 -45 -3 -8 -8 -24 -10 -35 -2 -11 -18 -81 -35 -155
-17 -74 -34 -153 -39 -175 -14 -65 -6 -195 14 -235 22 -43 75 -100 93 -100 7
0 13 -4 13 -9 0 -5 15 -12 33 -16 17 -4 39 -10 47 -13 8 -2 484 -5 1058 -6
954 -2 1041 -1 1017 13 -41 25 -67 91 -67 169 -1 55 33 249 46 271 2 3 7 24
10 46 4 22 11 56 16 75 5 19 12 50 15 69 3 19 8 37 10 41 4 6 13 45 19 85 2
11 6 31 10 45 14 58 45 197 50 220 3 14 7 34 10 45 2 11 12 54 21 95 9 41 18
82 20 90 2 8 13 58 25 110 12 52 23 100 24 105 1 6 8 37 15 70 7 33 19 84 27
113 7 30 13 57 12 60 -1 4 1 14 4 22 5 14 40 167 39 172 0 2 4 21 10 43 5 22
12 49 14 60 3 11 21 92 41 180 20 88 44 198 54 245 10 47 24 105 30 130 6 25
13 59 16 75 3 17 9 44 14 60 5 17 14 57 21 90 7 33 14 65 15 70 2 6 6 24 9 40
3 17 10 46 15 65 5 19 11 46 14 60 2 14 10 48 16 75 6 28 14 59 16 70 4 22 13
61 19 85 2 8 4 15 6 15 1 0 2 11 3 25 1 14 5 31 9 38 5 6 6 12 3 12 -3 0 -1
11 4 26 6 14 12 39 15 57 12 70 -18 64 343 64 322 0 352 -2 334 -32 -3 -5 -7
-14 -8 -20 -6 -36 -21 -103 -50 -230 -3 -11 -6 -32 -9 -47 -2 -15 -6 -31 -9
-36 -5 -8 -7 -19 -21 -97 -3 -16 -8 -38 -11 -47 -6 -19 -14 -54 -19 -83 -3
-11 -9 -38 -14 -60 -5 -22 -12 -51 -14 -65 -3 -14 -14 -63 -26 -110 -11 -47
-22 -96 -24 -110 -3 -14 -10 -43 -15 -65 -6 -22 -13 -53 -16 -70 -3 -16 -24
-109 -46 -205 -22 -96 -42 -186 -45 -200 -7 -35 -13 -63 -40 -175 -9 -38 -18
-79 -20 -90 -2 -11 -6 -31 -10 -45 -3 -14 -8 -36 -11 -49 -3 -12 -12 -53 -20
-90 -9 -36 -18 -75 -20 -86 -5 -31 -53 -240 -74 -330 -10 -44 -21 -91 -24
-105 -2 -14 -43 -196 -90 -405 -48 -209 -89 -393 -92 -409 -3 -16 -7 -33 -9
-36 -3 -4 -7 -25 -11 -46 -3 -22 -11 -47 -16 -58 -7 -14 -7 -17 2 -11 9 5 9 3
2 -11 -9 -18 -46 -170 -58 -239 -2 -16 -9 -43 -14 -60 -5 -16 -11 -41 -14 -55
-2 -14 -23 -109 -46 -210 -23 -102 -43 -192 -45 -200 -1 -8 -8 -35 -15 -59 -6
-24 -13 -75 -14 -113 -5 -132 46 -222 153 -272 46 -21 47 -21 1101 -24 l1055
-2 -34 27 c-45 38 -61 89 -56 182 2 42 5 85 8 96 15 56 49 212 50 228 1 9 5
17 10 17 4 0 6 3 3 8 -2 4 2 34 10 67 14 60 20 86 29 128 3 12 11 51 19 87 8
36 24 106 35 155 11 50 25 110 31 135 6 25 13 58 15 73 3 16 7 32 10 37 3 4 7
25 11 46 3 22 12 66 20 99 22 91 24 98 30 130 3 17 9 48 15 70 5 22 12 50 15
63 2 12 13 59 24 105 10 45 21 93 24 107 3 14 7 34 10 45 3 11 10 47 17 80 7
33 15 62 18 65 3 3 6 14 7 25 1 22 5 42 29 150 8 39 18 77 22 85 3 8 5 19 4
23 -1 4 5 34 13 65 8 31 17 68 20 82 2 14 12 57 21 95 9 39 18 81 20 95 3 14
9 43 15 65 15 57 19 76 26 110 3 17 14 68 25 115 18 77 25 106 34 150 2 8 9
38 15 65 6 28 14 61 17 75 8 38 11 55 13 60 1 3 3 10 4 15 1 6 6 28 11 50 5
22 10 42 10 45 1 3 4 19 8 35 4 17 9 39 11 50 3 11 14 63 27 115 12 52 23 105
23 118 1 12 3 22 6 22 3 0 6 8 7 18 1 10 8 45 17 78 8 32 17 73 20 89 3 17 10
48 15 70 5 22 12 51 15 65 2 14 12 58 21 99 9 40 19 80 20 90 2 9 4 16 5 16 1
0 3 9 5 19 2 11 12 53 21 95 10 42 18 78 19 81 0 3 9 44 19 91 l19 86 426 1
c234 0 437 3 451 6 108 24 194 83 243 168 19 32 135 395 152 473 1 5 9 35 18
65 9 30 23 78 31 105 8 28 25 88 39 135 14 47 45 155 70 240 25 85 62 211 82
279 20 68 34 125 32 127 -2 2 -14 -6 -26 -17 -27 -26 -115 -55 -191 -63 -30
-4 -67 -8 -83 -10 -15 -2 -30 1 -33 6 -3 4 -10 5 -16 2 -14 -9 -473 -8 -487 0
-6 4 -11 4 -11 -1 0 -9 -191 -9 -206 0 -6 3 -15 3 -21 -1 -14 -9 -227 -7 -242
2 -6 4 -11 4 -11 -1 0 -9 -440 -9 -464 0 -9 4 -16 3 -16 -1 0 -8 -192 -8 -206
1 -6 3 -15 3 -21 -1 -14 -9 -227 -7 -242 2 -6 4 -11 4 -11 -1 0 -9 -517 -9
-526 0 -4 3 -14 3 -23 -1 -19 -9 -288 -8 -297 1 -4 3 -14 3 -23 -1 -19 -9
-288 -8 -297 1 -4 3 -14 3 -23 -1 -19 -9 -288 -8 -297 1 -4 3 -14 3 -23 -1
-13 -6 -286 -8 -301 -2 -3 1 -9 1 -15 0 -5 -1 -98 -3 -205 -4 -185 -3 -198 -4
-251 -28 -134 -61 -187 -142 -240 -363 -5 -22 -12 -47 -16 -55 -7 -18 -4 -8
-41 -140 -17 -58 -35 -118 -42 -135 -6 -16 -11 -32 -11 -35 1 -5 -14 -59 -51
-180 -12 -41 -23 -79 -24 -85 0 -5 -9 -37 -19 -70 -11 -33 -19 -62 -20 -65 -1
-3 -4 -16 -8 -30 -42 -140 -48 -164 -48 -168 1 -1 -5 -18 -13 -37 -9 -20 -15
-38 -15 -40 1 -11 -14 -71 -19 -80 -4 -5 -8 -19 -9 -29 -2 -11 -6 -22 -9 -25
-5 -6 1 51 11 97 3 12 7 32 10 45 3 12 8 38 11 57 3 19 12 67 19 105 16 82 22
112 32 174 8 51 10 60 13 64 2 2 5 22 16 87 4 25 9 50 10 55 3 11 11 52 19
100 3 17 7 41 10 55 3 14 8 36 10 50 2 14 8 50 14 80 6 30 13 69 16 85 2 17 7
39 9 50 11 55 39 204 43 230 2 17 8 46 13 65 5 19 12 55 15 80 14 101 94 214
180 254 79 38 127 44 371 44 132 1 246 1 255 1 14 1 36 76 64 219 2 13 6 31 9
40 3 9 7 28 10 42 4 21 34 154 51 225 3 11 8 34 10 50 3 17 10 44 15 60 5 17
12 46 16 65 7 44 12 65 14 65 1 0 3 12 5 27 2 16 7 38 11 50 9 27 8 21 18 77
26 141 4 251 -61 312 -27 25 -67 50 -88 55 -5 2 -25 7 -44 13 -42 13 -2127 14
-2096 2 77 -32 104 -159 68 -311 -7 -30 -15 -64 -17 -75 -2 -11 -14 -60 -26
-110 -11 -49 -23 -101 -24 -115 -2 -14 -9 -45 -15 -70 -7 -25 -14 -56 -17 -70
-2 -14 -7 -32 -9 -40 -2 -8 -7 -30 -10 -49 -3 -19 -8 -37 -10 -41 -2 -4 -7
-22 -10 -41 -3 -19 -10 -50 -15 -69 -5 -19 -11 -46 -14 -60 -2 -14 -19 -86
-36 -160 -17 -74 -33 -144 -35 -155 -7 -39 -16 -81 -25 -115 -9 -33 -36 -157
-46 -210 -3 -14 -7 -33 -10 -42 -3 -9 -7 -27 -10 -40 -15 -68 -22 -101 -28
-125 -5 -20 -35 -155 -43 -193 -9 -46 -11 -55 -13 -55 -1 0 -3 -9 -5 -20 -2
-11 -6 -33 -10 -50 -4 -16 -8 -36 -8 -42 0 -7 -10 -13 -21 -14 -90 -4 -640 -3
-646 1 -5 3 -5 23 1 45 5 22 11 56 15 75 3 19 9 49 14 65 5 17 12 48 16 69 3
22 10 50 15 64 5 13 7 28 3 33 -3 5 -1 9 4 9 6 0 9 6 8 13 -1 13 22 133 31
157 8 19 9 27 17 70 3 19 10 50 15 68 5 17 8 32 6 32 -3 0 0 11 5 26 6 14 12
37 15 52 2 15 16 79 31 142 14 63 28 125 29 137 2 11 6 30 9 41 4 11 9 30 11
41 3 12 7 31 10 44 3 12 8 38 12 57 9 46 10 50 13 53 1 1 3 9 5 17 1 8 8 42
14 75 7 33 16 74 21 90 5 17 11 41 14 55 3 14 7 34 10 45 77 333 93 445 71
515 -28 90 -75 140 -163 169 -59 20 -79 21 -1104 21 -953 0 -1040 -2 -1011
-16z"/>
</g>
</svg>
