<svg id="analitic-systems" xmlns="http://www.w3.org/2000/svg" xmlns:xlink="http://www.w3.org/1999/xlink" viewBox="0 0 48 40">
  <g>
    <path d="M43,0H5C2.2,0,0,2.2,0,5v26c0,2.8,2.2,5,5,5h1v2H1c-0.6,0-1,0.4-1,1c0,0.6,0.4,1,1,1h7h4h5h4h5h4h5h4h7 c0.6,0,1-0.4,1-1c0-0.6-0.4-1-1-1h-5V14c0-1.1-0.9-2-2-2h-4c-1.1,0-2,0.9-2,2v24h-1V24c0-1.1-0.9-2-2-2h-4c-1.1,0-2,0.9-2,2v14h-1 V17c0-1.1-0.9-2-2-2h-4c-1.1,0-2,0.9-2,2v21h-1V27c0-1.1-0.9-2-2-2H8c-1.1,0-2,0.9-2,2v7H5c-1.7,0-3-1.3-3-3V8h44v23 c0,1.7-1.3,3-3,3h-1.9v2H43c2.8,0,5-2.2,5-5V5C48,2.2,45.8,0,43,0z M35,14h4v24h-4V14z M26,24h4v14h-4V24z M17,17h4v21h-4V17z M8,27h4v11H8V27z M2,6V5c0-1.7,1.3-3,3-3h38c1.7,0,3,1.3,3,3v1H2z"/>
    <circle cx="10" cy="4" r="1"/>
    <circle cx="6" cy="4" r="1"/>
    <circle cx="14" cy="4" r="1"/>
    <path d="M42,3H21c-0.6,0-1,0.4-1,1c0,0.6,0.4,1,1,1h21c0.6,0,1-0.4,1-1C43,3.4,42.6,3,42,3z"/>
  </g>
</svg>