<svg id="branch__icon2" xmlns="http://www.w3.org/2000/svg" xmlns:xlink="http://www.w3.org/1999/xlink" viewBox="0 0 96 96">
  <circle cx="14.5" cy="16.5" r="1.5"/>
  <circle cx="14.5" cy="22.5" r="1.5"/>
  <circle cx="20.5" cy="16.5" r="1.5"/>
  <circle cx="20.5" cy="22.5" r="1.5"/>
  <circle cx="26.5" cy="16.5" r="1.5"/>
  <circle cx="26.5" cy="22.5" r="1.5"/>
  <circle cx="32.5" cy="16.5" r="1.5"/>
  <circle cx="32.5" cy="22.5" r="1.5"/>
  <circle cx="38.5" cy="16.5" r="1.5"/>
  <circle cx="38.5" cy="22.5" r="1.5"/>
  <circle cx="44.5" cy="16.5" r="1.5"/>
  <circle cx="44.5" cy="22.5" r="1.5"/>
  <circle cx="14.5" cy="42.5" r="1.5"/>
  <circle cx="14.5" cy="48.5" r="1.5"/>
  <circle cx="20.5" cy="42.5" r="1.5"/>
  <circle cx="20.5" cy="48.5" r="1.5"/>
  <circle cx="26.5" cy="42.5" r="1.5"/>
  <circle cx="26.5" cy="48.5" r="1.5"/>
  <circle cx="32.5" cy="42.5" r="1.5"/>
  <circle cx="32.5" cy="48.5" r="1.5"/>
  <circle cx="38.5" cy="42.5" r="1.5"/>
  <circle cx="38.5" cy="48.5" r="1.5"/>
  <circle cx="44.5" cy="42.5" r="1.5"/>
  <circle cx="44.5" cy="48.5" r="1.5"/>
  <circle cx="14.5" cy="68.5" r="1.5"/>
  <circle cx="14.5" cy="74.5" r="1.5"/>
  <circle cx="20.5" cy="68.5" r="1.5"/>
  <circle cx="20.5" cy="74.5" r="1.5"/>
  <circle cx="26.5" cy="68.5" r="1.5"/>
  <circle cx="26.5" cy="74.5" r="1.5"/>
  <circle cx="32.5" cy="68.5" r="1.5"/>
  <circle cx="32.5" cy="74.5" r="1.5"/>
  <circle cx="38.5" cy="68.5" r="1.5"/>
  <circle cx="38.5" cy="74.5" r="1.5"/>
  <circle cx="44.5" cy="68.5" r="1.5"/>
  <circle cx="44.5" cy="74.5" r="1.5"/>
  <g>
    <path d="M91,25V13c0-3.3-2.7-6-6-6H12c-3.3,0-6,2.7-6,6v12c0,3,2.2,5.4,5,5.9v2.2C8.2,33.6,6,36,6,39v12 c0,3,2.2,5.4,5,5.9v2.2C8.2,59.6,6,62,6,65v12c0,3,2.2,5.4,5,5.9V88h13v-5h49v5h13v-5.1c2.8-0.5,5-2.9,5-5.9V65 c0-2.6-1.7-4.8-4-5.7v-2.7c2.3-0.8,4-3,4-5.7V39c0-3-2.2-5.4-5-5.9v-2.2C88.8,30.4,91,28,91,25z M9,25V13c0-1.7,1.3-3,3-3h73 c1.7,0,3,1.3,3,3v12c0,1.7-1.3,3-3,3H73H24H12C10.3,28,9,26.7,9,25z M83,33h-7v-2h7V33z M14,31h7v2h-7V31z M24,31h49v2H24V31z M84,59h-7v-2h7V59z M74,59H24v-2h50V59z M21,59h-7v-2h7V59z M21,85h-7v-2h7V85z M83,85h-7v-2h7V85z M88,65v12c0,1.7-1.3,3-3,3H73 H24H12c-1.7,0-3-1.3-3-3V65c0-1.7,1.3-3,3-3h12h50h11C86.7,62,88,63.3,88,65z M88,39v12c0,1.7-1.3,3-3,3H74H24H12c-1.7,0-3-1.3-3-3 V39c0-1.7,1.3-3,3-3h12h49h12C86.7,36,88,37.3,88,39z"/>
    <path d="M80.5,24c2.5,0,4.5-2,4.5-4.5S83,15,80.5,15S76,17,76,19.5S78,24,80.5,24z M80.5,18c0.8,0,1.5,0.7,1.5,1.5 c0,0.8-0.7,1.5-1.5,1.5S79,20.3,79,19.5C79,18.7,79.7,18,80.5,18z"/>
    <path d="M68.5,24c2.5,0,4.5-2,4.5-4.5S71,15,68.5,15S64,17,64,19.5S66,24,68.5,24z M68.5,18c0.8,0,1.5,0.7,1.5,1.5 c0,0.8-0.7,1.5-1.5,1.5S67,20.3,67,19.5C67,18.7,67.7,18,68.5,18z"/>
    <path d="M56.5,24c2.5,0,4.5-2,4.5-4.5S59,15,56.5,15S52,17,52,19.5S54,24,56.5,24z M56.5,18c0.8,0,1.5,0.7,1.5,1.5 c0,0.8-0.7,1.5-1.5,1.5S55,20.3,55,19.5C55,18.7,55.7,18,56.5,18z"/>
    <path d="M80.5,41C78,41,76,43,76,45.5s2,4.5,4.5,4.5s4.5-2,4.5-4.5S83,41,80.5,41z M80.5,47c-0.8,0-1.5-0.7-1.5-1.5 s0.7-1.5,1.5-1.5s1.5,0.7,1.5,1.5S81.3,47,80.5,47z"/>
    <path d="M68.5,41C66,41,64,43,64,45.5s2,4.5,4.5,4.5s4.5-2,4.5-4.5S71,41,68.5,41z M68.5,47c-0.8,0-1.5-0.7-1.5-1.5 s0.7-1.5,1.5-1.5s1.5,0.7,1.5,1.5S69.3,47,68.5,47z"/>
    <path d="M56.5,41C54,41,52,43,52,45.5s2,4.5,4.5,4.5s4.5-2,4.5-4.5S59,41,56.5,41z M56.5,47c-0.8,0-1.5-0.7-1.5-1.5 s0.7-1.5,1.5-1.5s1.5,0.7,1.5,1.5S57.3,47,56.5,47z"/>
    <path d="M80.5,67C78,67,76,69,76,71.5s2,4.5,4.5,4.5s4.5-2,4.5-4.5S83,67,80.5,67z M80.5,73c-0.8,0-1.5-0.7-1.5-1.5 s0.7-1.5,1.5-1.5s1.5,0.7,1.5,1.5S81.3,73,80.5,73z"/>
    <path d="M68.5,67C66,67,64,69,64,71.5s2,4.5,4.5,4.5s4.5-2,4.5-4.5S71,67,68.5,67z M68.5,73c-0.8,0-1.5-0.7-1.5-1.5 s0.7-1.5,1.5-1.5s1.5,0.7,1.5,1.5S69.3,73,68.5,73z"/>
    <path d="M56.5,67C54,67,52,69,52,71.5s2,4.5,4.5,4.5s4.5-2,4.5-4.5S59,67,56.5,67z M56.5,73c-0.8,0-1.5-0.7-1.5-1.5 s0.7-1.5,1.5-1.5s1.5,0.7,1.5,1.5S57.3,73,56.5,73z"/>
  </g>
</svg>
