<svg id="branch__icon4" xmlns="http://www.w3.org/2000/svg" xmlns:xlink="http://www.w3.org/1999/xlink" viewBox="0 0 136 96">
  <path d="M91,25H5c-2.8,0-5,2.2-5,5v53c0,2.8,2.2,5,5,5h86c2.8,0,5-2.2,5-5v-7v-3v-9v-3v-9v-3v-9v-3v-7
	C96,27.2,93.8,25,91,25z M47,40v9H26v-9H47z M26,37v-9h21v9H26z M47,52v9H26v-9H47z M23,49H3v-9h20V49z M23,52v9H3v-9H23z M23,64v9 H3v-9H23z M26,64h21v9H26V64z M47,76v9H26v-9H47z M50,76h20v9H50V76z M50,73v-9h20v9H50z M50,61v-9h20v9H50z M50,49v-9h20v9H50z M50,37v-9h20v9H50z M5,28h18v9H3v-7C3,28.9,3.9,28,5,28z M3,83v-7h20v9H5C3.9,85,3,84.1,3,83z M93,83c0,1.1-0.9,2-2,2H73v-9h20V83z M93,73H73v-9h20V73z M93,61H73v-9h20V61z M93,49H73v-9h20V49z M73,37v-9h18c1.1,0,2,0.9,2,2v7H73z"/>
  <circle cx="7.5" cy="31.5" r="1.5"/>
  <circle cx="30.5" cy="31.5" r="1.5"/>
  <circle cx="54.5" cy="31.5" r="1.5"/>
  <circle cx="77.5" cy="31.5" r="1.5"/>
  <circle cx="7.5" cy="43.5" r="1.5"/>
  <circle cx="30.5" cy="43.5" r="1.5"/>
  <circle cx="54.5" cy="43.5" r="1.5"/>
  <circle cx="77.5" cy="43.5" r="1.5"/>
  <circle cx="7.5" cy="55.5" r="1.5"/>
  <circle cx="30.5" cy="55.5" r="1.5"/>
  <circle cx="54.5" cy="55.5" r="1.5"/>
  <circle cx="77.5" cy="55.5" r="1.5"/>
  <circle cx="7.5" cy="67.5" r="1.5"/>
  <circle cx="30.5" cy="67.5" r="1.5"/>
  <circle cx="54.5" cy="67.5" r="1.5"/>
  <circle cx="77.5" cy="67.5" r="1.5"/>
  <circle cx="7.5" cy="79.5" r="1.5"/>
  <circle cx="30.5" cy="79.5" r="1.5"/>
  <circle cx="54.5" cy="79.5" r="1.5"/>
  <circle cx="77.5" cy="79.5" r="1.5"/>
  <path d="M117.5,12c8,0,14.5,6.5,14.5,14.5S125.5,41,117.5,41S103,34.5,103,26.5 S109.5,12,117.5,12 M117.5,9c-9.7,0-17.5,7.8-17.5,17.5c0,9.7,7.8,17.5,17.5,17.5S135,36.2,135,26.5C135,16.8,127.2,9,117.5,9 L117.5,9z"/>
  <path d="M108,26h-2c0-7,5-12,12-12v2C112,16,108,20,108,26z"/>
  <path d="M117.5,24c1.4,0,2.5,1.1,2.5,2.5s-1.1,2.5-2.5,2.5s-2.5-1.1-2.5-2.5 S116.1,24,117.5,24 M117.5,21c-3,0-5.5,2.5-5.5,5.5c0,3,2.5,5.5,5.5,5.5s5.5-2.5,5.5-5.5C123,23.5,120.5,21,117.5,21L117.5,21z"/>
  <polygon points="119,53 99,53 99,50 116,50 116,46 119,46 "/>
</svg>
