<svg id="branch__icon5" xmlns="http://www.w3.org/2000/svg" xmlns:xlink="http://www.w3.org/1999/xlink" viewBox="0 0 96 96">
  <rect x="11" y="7"  width="10" height="3"/>
  <rect x="11" y="13"  width="10" height="3"/>
  <rect x="43" y="7"  width="10" height="3"/>
  <rect x="43" y="13"  width="10" height="3"/>
  <rect x="75" y="7"  width="10" height="3"/>
  <rect x="75" y="13"  width="10" height="3"/>
  <circle cx="73.5" cy="36.5" r="1.5"/>
  <circle cx="67.5" cy="36.5" r="1.5"/>
  <circle cx="61.5" cy="36.5" r="1.5"/>
  <circle cx="35.5" cy="49.5" r="1.5"/>
  <circle cx="29.5" cy="49.5" r="1.5"/>
  <circle cx="23.5" cy="49.5" r="1.5"/>
  <path  d="M91,23V1H69v9H59V1H37v9H27V1H5v22h22V13h10v10h10v10H22c-3.3,0-6,2.7-6,6v2v3v27c0,3.3,2.7,6,6,6h0.3 c0.7,2,2.5,3.5,4.7,3.9v3.2c-2.8,0.5-5,2.9-5,5.9c0,3.3,2.7,6,6,6h41c3.3,0,6-2.7,6-6c0-3-2.2-5.4-5-5.9v-3.2 c2.2-0.4,3.9-1.9,4.7-3.9H75c3.3,0,6-2.7,6-6V35c0-3.3-2.7-6-6-6H55.3c-2,0-3.8,3.6-5.3,4V23h9V13h10v10H91z M24,20H8V4h16V20z M72,90c0,1.7-1.3,3-3,3H28c-1.7,0-3-1.3-3-3c0-1.7,1.3-3,3-3h41C70.7,87,72,88.3,72,90z M30,84v-3h37v3H30z M69,78H28 c-1.7,0-3-1.3-3-3c0-1.7,1.3-3,3-3h41c1.7,0,3,1.3,3,3C72,76.7,70.7,78,69,78z M28,63c-1.7,0-3-1.3-3-3c0-1.7,1.3-3,3-3h41 c1.7,0,3,1.3,3,3c0,1.7-1.3,3-3,3H28z M67,66v3H30v-3H67z M78,71c0,1.7-1.3,3-3,3h-0.1c-0.4-2.5-2.4-4.5-4.9-4.9v-3.2 c2.8-0.5,5-2.9,5-5.9c0-3.3-2.7-6-6-6H28c-3.3,0-6,2.7-6,6c0,3,2.2,5.4,5,5.9v3.2c-2.5,0.4-4.5,2.4-4.9,4.9H22c-1.7,0-3-1.3-3-3V44 h59V71z M54.3,33.3c0.4-0.4,0.9-1,1.3-1.3H75c1.7,0,3,1.3,3,3v6H19v-2c0-1.7,1.3-3,3-3h27.8C51.8,36,53.1,34.5,54.3,33.3z M56,20H40 V4h16V20z M72,4h16v16H72V4z"/>
</svg>
