<svg id="branch__icon3" xmlns="http://www.w3.org/2000/svg" xmlns:xlink="http://www.w3.org/1999/xlink" viewBox="0 0 96 96">
  <path d="M73.5,15.5c0.3,0,0.5,0.2,0.5,0.5s-0.2,0.5-0.5,0.5S73,16.3,73,16S73.2,15.5,73.5,15.5 M73.5,12.5c-1.9,0-3.5,1.6-3.5,3.5s1.6,3.5,3.5,3.5S77,17.9,77,16S75.4,12.5,73.5,12.5L73.5,12.5z"/>
  <path d="M64.5,15.5c0.3,0,0.5,0.2,0.5,0.5s-0.2,0.5-0.5,0.5S64,16.3,64,16 S64.2,15.5,64.5,15.5 M64.5,12.5c-1.9,0-3.5,1.6-3.5,3.5s1.6,3.5,3.5,3.5c1.9,0,3.5-1.6,3.5-3.5S66.4,12.5,64.5,12.5L64.5,12.5z"/>
  <path d="M55.5,15.5c0.3,0,0.5,0.2,0.5,0.5s-0.2,0.5-0.5,0.5S55,16.3,55,16 S55.2,15.5,55.5,15.5 M55.5,12.5c-1.9,0-3.5,1.6-3.5,3.5s1.6,3.5,3.5,3.5S59,17.9,59,16S57.4,12.5,55.5,12.5L55.5,12.5z"/>
  <path d="M73.5,67.5c0.3,0,0.5,0.2,0.5,0.5s-0.2,0.5-0.5,0.5S73,68.3,73,68 S73.2,67.5,73.5,67.5 M73.5,64.5c-1.9,0-3.5,1.6-3.5,3.5c0,1.9,1.6,3.5,3.5,3.5S77,69.9,77,68C77,66.1,75.4,64.5,73.5,64.5
    L73.5,64.5z"/>
  <path d="M64.5,67.5c0.3,0,0.5,0.2,0.5,0.5s-0.2,0.5-0.5,0.5S64,68.3,64,68 S64.2,67.5,64.5,67.5 M64.5,64.5c-1.9,0-3.5,1.6-3.5,3.5c0,1.9,1.6,3.5,3.5,3.5c1.9,0,3.5-1.6,3.5-3.5C68,66.1,66.4,64.5,64.5,64.5 L64.5,64.5z"/>
  <path d="M55.5,67.5c0.3,0,0.5,0.2,0.5,0.5s-0.2,0.5-0.5,0.5S55,68.3,55,68 S55.2,67.5,55.5,67.5 M55.5,64.5c-1.9,0-3.5,1.6-3.5,3.5c0,1.9,1.6,3.5,3.5,3.5S59,69.9,59,68C59,66.1,57.4,64.5,55.5,64.5 L55.5,64.5z"/>
  <path d="M73.5,41.5c0.3,0,0.5,0.2,0.5,0.5s-0.2,0.5-0.5,0.5S73,42.3,73,42 S73.2,41.5,73.5,41.5 M73.5,38.5c-1.9,0-3.5,1.6-3.5,3.5s1.6,3.5,3.5,3.5S77,43.9,77,42S75.4,38.5,73.5,38.5L73.5,38.5z"/>
  <path d="M64.5,41.5c0.3,0,0.5,0.2,0.5,0.5s-0.2,0.5-0.5,0.5S64,42.3,64,42 S64.2,41.5,64.5,41.5 M64.5,38.5c-1.9,0-3.5,1.6-3.5,3.5s1.6,3.5,3.5,3.5c1.9,0,3.5-1.6,3.5-3.5S66.4,38.5,64.5,38.5L64.5,38.5z"/>
  <path d="M55.5,41.5c0.3,0,0.5,0.2,0.5,0.5s-0.2,0.5-0.5,0.5S55,42.3,55,42 S55.2,41.5,55.5,41.5 M55.5,38.5c-1.9,0-3.5,1.6-3.5,3.5s1.6,3.5,3.5,3.5S59,43.9,59,42S57.4,38.5,55.5,38.5L55.5,38.5z"/>
  <circle cx="41.5" cy="16" r="1.5"/>
  <circle cx="41.5" cy="22" r="1.5"/>
  <circle cx="35.5" cy="16" r="1.5"/>
  <circle cx="35.5" cy="22" r="1.5"/>
  <circle cx="29.5" cy="16" r="1.5"/>
  <circle cx="29.5" cy="22" r="1.5"/>
  <circle cx="23.5" cy="16" r="1.5"/>
  <circle cx="23.5" cy="22" r="1.5"/>
  <circle cx="17.5" cy="16" r="1.5"/>
  <circle cx="17.5" cy="22" r="1.5"/>
  <circle cx="11.5" cy="16" r="1.5"/>
  <circle cx="11.5" cy="22" r="1.5"/>
  <circle cx="41.5" cy="42" r="1.5"/>
  <circle cx="41.5" cy="48" r="1.5"/>
  <circle cx="35.5" cy="42" r="1.5"/>
  <circle cx="35.5" cy="48" r="1.5"/>
  <circle cx="29.5" cy="42" r="1.5"/>
  <circle cx="29.5" cy="48" r="1.5"/>
  <circle cx="23.5" cy="42" r="1.5"/>
  <circle cx="23.5" cy="48" r="1.5"/>
  <circle cx="17.5" cy="42" r="1.5"/>
  <circle cx="17.5" cy="48" r="1.5"/>
  <circle cx="11.5" cy="42" r="1.5"/>
  <circle cx="11.5" cy="48" r="1.5"/>
  <circle cx="41.5" cy="68" r="1.5"/>
  <circle cx="41.5" cy="74" r="1.5"/>
  <circle cx="35.5" cy="68" r="1.5"/>
  <circle cx="35.5" cy="74" r="1.5"/>
  <circle cx="29.5" cy="68" r="1.5"/>
  <circle cx="29.5" cy="74" r="1.5"/>
  <circle cx="23.5" cy="68" r="1.5"/>
  <circle cx="23.5" cy="74" r="1.5"/>
  <circle cx="17.5" cy="68" r="1.5"/>
  <circle cx="17.5" cy="74" r="1.5"/>
  <circle cx="11.5" cy="68" r="1.5"/>
  <circle cx="11.5" cy="74" r="1.5"/>
  <path d="M93,25.5v-12c0-3.3-2.7-6-6-6h-5H47H9c-3.3,0-6,2.7-6,6v12c0,2.6,1.7,4.8,4,5.7v2.7c-2.3,0.8-4,3-4,5.7v12 c0,2.6,1.7,4.8,4,5.7v2.7c-2.3,0.8-4,3-4,5.7v12c0,2.6,1.7,4.8,4,5.7v5.3h13v-5h56v5h13v-5.3c2.3-0.8,4-3,4-5.7v-12 c0-2.6-1.7-4.8-4-5.7v-2.7c2.3-0.8,4-3,4-5.7v-12c0-2.6-1.7-4.8-4-5.7v-2.7C91.3,30.3,93,28.1,93,25.5z M79,10.5v8c0,1.7-1.3,3-3,3 H53c-1.7,0-3-1.3-3-3v-8H79z M6,25.5v-12c0-1.7,1.3-3,3-3h38v8c0,3.3,2.7,6,6,6h23c3.3,0,6-2.7,6-6v-8h5c1.7,0,3,1.3,3,3v12 c0,1.7-1.3,3-3,3H76H20H9C7.3,28.5,6,27.2,6,25.5z M86,33.5h-4h-3v-2h7V33.5z M10,31.5h7v2h-7V31.5z M20,31.5h56v2H47H20V31.5z M50,36.5h26h3v8c0,1.7-1.3,3-3,3H53c-1.7,0-3-1.3-3-3V36.5z M86,59.5h-4h-3v-2h7V59.5z M50,62.5h26h3v8c0,1.7-1.3,3-3,3H53 c-1.7,0-3-1.3-3-3V62.5z M76,59.5H47H20v-2h56V59.5z M17,59.5h-7v-2h7V59.5z M17,85.5h-7v-2h7V85.5z M86,85.5h-7v-2h7V85.5z M90,65.5v12c0,1.7-1.3,3-3,3H76H20H9c-1.7,0-3-1.3-3-3v-12c0-1.7,1.3-3,3-3h11h27v8c0,3.3,2.7,6,6,6h23c3.3,0,6-2.7,6-6v-8h5 C88.7,62.5,90,63.8,90,65.5z M90,39.5v12c0,1.7-1.3,3-3,3H76H20H9c-1.7,0-3-1.3-3-3v-12c0-1.7,1.3-3,3-3h11h27v8c0,3.3,2.7,6,6,6h23 c3.3,0,6-2.7,6-6v-8h5C88.7,36.5,90,37.8,90,39.5z"/>
</svg>
