<svg id="branch__icon6" xmlns="http://www.w3.org/2000/svg" xmlns:xlink="http://www.w3.org/1999/xlink" viewBox="0 0 70 66">
  <circle cx="24" cy="35" r="1"/>
  <polygon points="43,36 28,36 28,34 41,34 41,29.5 43,29.5 "/>
  <polygon points="48,41 22,41 22,39 46,39 46,29.2 48,29.2 "/>
  <circle cx="16" cy="40" r="2"/>
  <path d="M44,61c1.3,0,2.4,0.8,2.8,2H15.2 c0.4-1.2,1.5-2,2.8-2H44 M44,58H18c-3.3,0-6,2.7-6,6v2h38v-2C50,60.7,47.3,58,44,58L44,58z"/>
  <path d="M39.9,55l0.7,3H21.4l0.7-3H39.9 M42.3,52H19.7l-2,9h26.7L42.3,52 L42.3,52z"/>
  <path d="M36,4c5.7,0,7.4,3.3,7.6,3.7l1.1,2.5l2.6-0.8C48,9.1,48.7,9,49.5,9 c1.2,0,2.4,0.3,3.4,0.8c2.4,1.3,2.7,2.6,3,3.7c0.1,0.2,0.1,0.4,0.2,0.6l0.6,1.9l2,0.2c3.6,0.3,5.2,2.1,5.2,5.7c0,3.4-2.6,6.1-5,6.2 c-0.9,0-29.9,0-31,0c-3.8,0-5.8-2.5-6-6.7c-0.3-4.2,3.6-5.8,4-6l2-0.7l0-2.1c0,0-0.1-4.4,2.4-7C31.7,4.2,33.7,4,36,4 M36,1 C35.9,1,36.1,1,36,1C25,1.1,25,12.5,25,12.5s-6.4,2.3-6,9c0.4,6.7,5.6,9.5,10,9.5c2.9,0,14.2,0,23,0c4.4,0,5.9,0,7,0 c3.9-0.1,8-4.2,8-9.2s-2.7-8.3-8-8.7c-0.4-1.1-0.7-3.9-4.7-6C52.8,6.4,51.2,6,49.5,6c-1.1,0-2.1,0.2-3.2,0.5C46.3,6.5,45,1,37,1H36z"/>
  <path d="M56,26c-0.5,0-0.8,0-1,0v-2c1.2,0.1,2.1,0,3,0c1,0,1-1.8,1-2h2c0,0.7-0.5,2.5-1,3C58.9,26,57.2,26,56,26z"/>
  <path d="M32,13h-2c0-5.5,4.1-7,6.3-7l0,2C35.9,8,32,8.2,32,13z"/>
  <path d="M24,21v-0.1c0-0.8,0.3-1.5,0.9-2.1c0.6-0.5,1.3-0.8,2.1-0.8l0,2c-0.3,0-0.5,0.1-0.7,0.3 c-0.2,0.2-0.3,0.4-0.3,0.7L24,21z"/>
  <path d="M56,30.3V46H6V19v-0.1l0-0.1c0-0.5,0.1-0.9,0.5-1.3C6.8,17.2,7.2,17,7.7,17l0.1,0l0.1,0l0.1,0H8h15.7l1.8-2.8 L25,14H8c-0.1,0-0.1,0-0.2,0s-0.1,0-0.2,0c-2.6,0.1-4.7,2.4-4.6,5v30.7C3,52.6,5.4,55,8.3,55h45.3c2.9,0,5.3-2.4,5.3-5.3V29.3 L56,30.3z M53.7,52H8.3C7,52,6,51,6,49.7V49h50v0.7C56,51,55,52,53.7,52z"/>
</svg>
