<svg id="branch__icon1" xmlns="http://www.w3.org/2000/svg" xmlns:xlink="http://www.w3.org/1999/xlink" viewBox="0 0 117 95">
<g>
	<circle cx="13.5" cy="13.5" r="1.5"/>
	<circle cx="13.5" cy="19.5" r="1.5"/>
	<path d="M72,14v4h-4v-4H72 M73,11h-6c-1.1,0-2,0.9-2,2v6 c0,1.1,0.9,2,2,2h6c1.1,0,2-0.9,2-2v-6C75,11.9,74.1,11,73,11L73,11z"/>
	<path d="M58,14v4h-4v-4H58 M59,11h-6 c-1.1,0-2,0.9-2,2v6c0,1.1,0.9,2,2,2h6c1.1,0,2-0.9,2-2v-6C61,11.9,60.1,11,59,11L59,11z"/>
	<path d="M19.5,12h25c0.8,0,1.5,0.7,1.5,1.5l0,0 c0,0.8-0.7,1.5-1.5,1.5h-25c-0.8,0-1.5-0.7-1.5-1.5l0,0C18,12.7,18.7,12,19.5,12z"/>
	<path d="M19.5,18h25c0.8,0,1.5,0.7,1.5,1.5l0,0 c0,0.8-0.7,1.5-1.5,1.5h-25c-0.8,0-1.5-0.7-1.5-1.5l0,0C18,18.7,18.7,18,19.5,18z"/>
	<g>
		<path d="M111,54.5c0-3.6-5.8-6.5-13-6.5s-13,2.9-13,6.5c0,0.2,0,0.4,0.1,0.6L85,55v30c0,0,2.8,4,12.8,4 c0.3,0,0.6,0,0.9,0c10.3-0.2,12.3-4,12.3-4V55l-0.1,0.1C111,54.9,111,54.7,111,54.5z M108,83.8c-1,0.7-3.5,2.1-9.4,2.2 c-0.3,0-0.6,0-0.8,0c-5.8,0-8.6-1.5-9.8-2.3v-6.3c2.1,1.3,5.4,2.1,10,2.1s7.9-0.8,10-2.1C108,77.4,108,83.8,108,83.8z M108,73.7 c-1,1.8-4.4,2.8-10,2.8s-9-1-10-2.8v-5.3c2.1,1.3,5.4,2.1,10,2.1s7.9-0.8,10-2.1V73.7z M108,64.7c-1,1.8-4.4,2.8-10,2.8 s-9-1-10-2.8v-6c2.4,1.4,6,2.3,10,2.3s7.6-0.9,10-2.3V64.7z M98,58c-6.6,0-10-2.6-10-3.5S91.4,51,98,51s10,2.6,10,3.5 S104.6,58,98,58z"/>
    </g>
  </g>
  <circle cx="97.5" cy="64.5" r="1.5"/>
  <circle cx="97.5" cy="73.5" r="1.5"/>
  <circle cx="97.5" cy="82.5" r="1.5"/>
  <g>
    <circle cx="13.5" cy="45.5" r="1.5"/>
    <circle cx="13.5" cy="39.5" r="1.5"/>
    <path d="M72,40v4h-4v-4H72 M73,37h-6c-1.1,0-2,0.9-2,2 v6c0,1.1,0.9,2,2,2h6c1.1,0,2-0.9,2-2v-6C75,37.9,74.1,37,73,37L73,37z"/>
    <path d="M58,40v4h-4v-4H58 M59,37h-6 c-1.1,0-2,0.9-2,2v6c0,1.1,0.9,2,2,2h6c1.1,0,2-0.9,2-2v-6C61,37.9,60.1,37,59,37L59,37z"/>
    <path d="M19.5,38h25c0.8,0,1.5,0.7,1.5,1.5l0,0 c0,0.8-0.7,1.5-1.5,1.5h-25c-0.8,0-1.5-0.7-1.5-1.5l0,0C18,38.7,18.7,38,19.5,38z"/>
    <path d="M19.5,44h25c0.8,0,1.5,0.7,1.5,1.5 l0,0c0,0.8-0.7,1.5-1.5,1.5h-25c-0.8,0-1.5-0.7-1.5-1.5l0,0C18,44.7,18.7,44,19.5,44z"/>
  </g>
  <g>
    <circle cx="13.5" cy="65.5" r="1.5"/>
    <circle cx="13.5" cy="71.5" r="1.5"/>
    <path d="M72,66v4h-4v-4H72 M73,63h-6c-1.1,0-2,0.9-2,2 v6c0,1.1,0.9,2,2,2h6c1.1,0,2-0.9,2-2v-6C75,63.9,74.1,63,73,63L73,63z"/>
    <path d="M58,66v4h-4v-4H58 M59,63h-6 c-1.1,0-2,0.9-2,2v6c0,1.1,0.9,2,2,2h6c1.1,0,2-0.9,2-2v-6C61,63.9,60.1,63,59,63L59,63z"/>
    <path d="M19.5,64h25c0.8,0,1.5,0.7,1.5,1.5l0,0 c0,0.8-0.7,1.5-1.5,1.5h-25c-0.8,0-1.5-0.7-1.5-1.5l0,0C18,64.7,18.7,64,19.5,64z"/>
    <path d="M19.5,70h25c0.8,0,1.5,0.7,1.5,1.5 l0,0c0,0.8-0.7,1.5-1.5,1.5h-25c-0.8,0-1.5-0.7-1.5-1.5l0,0C18,70.7,18.7,70,19.5,70z"/>
  </g>
  <path d="M81,22V10c0-3.3-2.7-6-6-6H12c-3.3,0-6,2.7-6,6v12c0,2.6,1.7,4.8,4,5.7v2.7c-2.3,0.8-4,3-4,5.7v12 c0,2.6,1.7,4.8,4,5.7v2.7c-2.3,0.8-4,3-4,5.7v12c0,2.6,1.7,4.8,4,5.7V85h13v-5h39v5h13v-5c3.3,0,6-2.7,6-6V62c0-3.3-2.7-6-6-6v-2 c3.3,0,6-2.7,6-6V36c0-3.3-2.7-6-6-6v-2C78.3,28,81,25.3,81,22z M23,28h39v2H23V28z M20,30h-7v-2h7V30z M23,54h39v2H23V54z M20,56 h-7v-2h7V56z M20,82h-7v-2h7V82z M72,82h-7v-2h7V82z M78,62v12c0,1.7-1.3,3-3,3H62H23H12c-1.7,0-3-1.3-3-3V62c0-1.7,1.3-3,3-3h11h39 h13C76.7,59,78,60.3,78,62z M72,56h-7v-2h7V56z M78,36v12c0,1.7-1.3,3-3,3H62H23H12c-1.7,0-3-1.3-3-3V36c0-1.7,1.3-3,3-3h11h39h13 C76.7,33,78,34.3,78,36z M72,30h-7v-2h7V30z M62,25H23H12c-1.7,0-3-1.3-3-3V10c0-1.7,1.3-3,3-3h63c1.7,0,3,1.3,3,3v12 c0,1.7-1.3,3-3,3H62z"/>
  <path d="M83,91.5H35c-0.8,0-1.5-0.7-1.5-1.5v-7c0-0.8,0.7-1.5,1.5-1.5s1.5,0.7,1.5,1.5v5.5H83c0.8,0,1.5,0.7,1.5,1.5 S83.8,91.5,83,91.5z"/>
</svg>
