<svg id="chassis" xmlns="http://www.w3.org/2000/svg" xmlns:xlink="http://www.w3.org/1999/xlink" viewBox="0 0 70 66">
  <path d="M33.5,58c-1.9,0-3.5,1.6-3.5,3.5s1.6,3.5,3.5,3.5s3.5-1.6,3.5-3.5S35.4,58,33.5,58z M33.5,63 c-0.8,0-1.5-0.7-1.5-1.5s0.7-1.5,1.5-1.5s1.5,0.7,1.5,1.5S34.3,63,33.5,63z"/>
  <path d="M26.5,50c-1.9,0-3.5,1.6-3.5,3.5s1.6,3.5,3.5,3.5s3.5-1.6,3.5-3.5S28.4,50,26.5,50z M26.5,55 c-0.8,0-1.5-0.7-1.5-1.5s0.7-1.5,1.5-1.5s1.5,0.7,1.5,1.5S27.3,55,26.5,55z"/>
  <path d="M40.5,50c-1.9,0-3.5,1.6-3.5,3.5s1.6,3.5,3.5,3.5s3.5-1.6,3.5-3.5S42.4,50,40.5,50z M40.5,55 c-0.8,0-1.5-0.7-1.5-1.5s0.7-1.5,1.5-1.5s1.5,0.7,1.5,1.5S41.3,55,40.5,55z"/>
  <path d="M51.5,43c-1.9,0-3.5,1.6-3.5,3.5s1.6,3.5,3.5,3.5s3.5-1.6,3.5-3.5S53.4,43,51.5,43z M51.5,48 c-0.8,0-1.5-0.7-1.5-1.5s0.7-1.5,1.5-1.5s1.5,0.7,1.5,1.5S52.3,48,51.5,48z"/>
  <path d="M16.5,43c-1.9,0-3.5,1.6-3.5,3.5s1.6,3.5,3.5,3.5s3.5-1.6,3.5-3.5S18.4,43,16.5,43z M16.5,48 c-0.8,0-1.5-0.7-1.5-1.5s0.7-1.5,1.5-1.5s1.5,0.7,1.5,1.5S17.3,48,16.5,48z"/>
  <path d="M40,14H27c-2.2,0-4,1.8-4,4v12c0,2.2,1.8,4,4,4h13c2.2,0,4-1.8,4-4V18C44,15.8,42.2,14,40,14z M41,30 c0,0.6-0.4,1-1,1H27c-0.6,0-1-0.4-1-1V18c0-0.6,0.4-1,1-1h13c0.6,0,1,0.4,1,1V30z"/>
  <rect x="25" y="32" width="3" height="20"/>
  <rect x="32" y="29" width="3" height="30"/>
  <rect x="39" y="32" width="3" height="20"/>
  <rect x="41.5" y="45" width="8" height="3"/>
  <rect x="18.5" y="45" width="8" height="3"/>
  <path d="M38,23c-0.6,0-1,0.4-1,1v4h-7v-7h8c0.5,0,1-0.4,1-1c0-0.6-0.4-1-1-1h-8.6c-0.1,0-0.1,0-0.2,0 c-0.1,0-0.2,0-0.2,0c-0.6,0-1,0.4-1,1v9c0,0.6,0.4,1,1,1h9c0.6,0,1-0.4,1-1v-5C39,23.4,38.6,23,38,23z"/>
  <path d="M60,18c-1.5-4.7-5.8-8-11-8c-0.6,0-1.2,0.1-1.8,0.2C44.1,4.7,38.2,1,31.5,1c-9,0-16.4,6.6-17.8,15.1 C13.2,16.1,12.6,16,12,16C5.1,16,0,22.1,0,29c0,6.4,4.2,11.1,10.4,11.9c0.2,0.1,0.4,0.1,0.6,0.1h8.6c0.8,0,1.4-0.7,1.4-1.5 S20.4,38,19.6,38h-8.3c0,0,0,0,0,0C6.4,37.6,3,34,3,29c0-5.2,3.8-10,9-10c1.5,0,2.9,0.3,4.1,0.9c1.1-0.6,0.9-2.9,0.6-3 C17.7,9.6,23.9,4,31.5,4c5.4,0,10.1,2.8,12.7,7.1c0.8,0.9,1.3,2.6,1.4,2.7c1.4-0.8,3-0.7,2.9-0.8c0,0,0,0,0,0s0,0,0,0 c0.2,0,0.3,0,0.5,0c3.5,0,6.5,2.2,7.8,5.2c-0.1,0,0.6,2.3,0.6,2.7c0.5,0.1,3,0.3,3,0.2c4,0.7,6.5,4.7,6.5,8.9c0,4.7-3.3,8-8,8 c-0.2,0-34.5,0-34.5,0c-0.8,0-1.5,0.7-1.5,1.5s0.7,1.5,1.5,1.5H59c0,0,0,0,0,0c0,0,0,0,0,0c6.4,0,11-4.6,11-11 C70,24,65.9,18.5,60,18z"/>
</svg>
