<svg id="cloud-systems" xmlns="http://www.w3.org/2000/svg" xmlns:xlink="http://www.w3.org/1999/xlink" viewBox="0 0 49 44">
  <path d="M28,18c0.6,0,1,0.4,1,1v4c0,0.6-0.4,1-1,1H3 c-0.6,0-1-0.4-1-1v-4c0-0.6,0.4-1,1-1H28 M28,16H3c-1.7,0-3,1.3-3,3v4c0,1.7,1.3,3,3,3h25c1.7,0,3-1.3,3-3v-4C31,17.3,29.7,16,28,16 L28,16z"/>
  <circle cx="20" cy="21" r="1"/>
  <circle cx="25" cy="21" r="1"/>
  <circle cx="47" cy="38" r="1"/>
  <path d="M6,20h9c0.6,0,1,0.4,1,1l0,0 c0,0.6-0.4,1-1,1H6c-0.6,0-1-0.4-1-1l0,0C5,20.4,5.4,20,6,20z"/>
  <path d="M28,10c0.6,0,1,0.4,1,1v4 c0,0.6-0.4,1-1,1H3c-0.6,0-1-0.4-1-1v-4c0-0.6,0.4-1,1-1H28 M28,8H3c-1.7,0-3,1.3-3,3v4c0,1.7,1.3,3,3,3h25c1.7,0,3-1.3,3-3v-4 C31,9.3,29.7,8,28,8L28,8z"/>
  <circle cx="20" cy="13" r="1"/>
  <circle cx="25" cy="13" r="1"/>
  <path d="M6,12h9c0.6,0,1,0.4,1,1l0,0 c0,0.6-0.4,1-1,1H6c-0.6,0-1-0.4-1-1l0,0C5,12.4,5.4,12,6,12z"/>
  <path d="M28,2c0.6,0,1,0.4,1,1v4 c0,0.6-0.4,1-1,1H3C2.4,8,2,7.6,2,7V3c0-0.6,0.4-1,1-1H28 M28,0H3C1.3,0,0,1.3,0,3v4c0,1.7,1.3,3,3,3h25c1.7,0,3-1.3,3-3V3 C31,1.3,29.7,0,28,0L28,0z"/>
  <circle cx="20" cy="5" r="1"/>
  <circle cx="25" cy="5" r="1"/>
  <path d="M6,4h9c0.6,0,1,0.4,1,1l0,0 c0,0.6-0.4,1-1,1H6C5.4,6,5,5.6,5,5l0,0C5,4.4,5.4,4,6,4z"/>
  <path d="M10,41H7v-9h2l-3-3l-3,3h2v11h5c0.6,0,1-0.4,1-1S10.6,41,10,41z"/>
  <path d="M46,23V12h-8c-0.6,0-1,0.4-1,1s0.4,1,1,1h6v9h-2l3,3l3-3H46z"/>
  <path d="M43.2,44c-0.1,0-0.2,0-0.3,0c-0.4,0-1.5,0-3,0c-5.7,0-17.4-0.1-19.9,0c-2.1,0.1-3.7-0.4-4.8-1.5 C14.4,41.6,14,40.4,14,39c0.1-2.4,2.2-3.5,3.8-3.8c-0.1-2,0.9-4,2.6-5c2.8-1.7,5.1-1.1,6.3-0.5c1.6-1.8,3.9-2.8,6.3-2.7 c3.1,0,6,1.8,7.4,4.6c0.8-0.3,1.9-0.7,3.1-0.4c1.3,0.2,2.4,1,3.2,2.3c0.3,0.5,0.2,1.1-0.3,1.4c-0.5,0.3-1.1,0.2-1.4-0.3 c-0.6-0.8-1.2-1.3-1.9-1.4c-1.3-0.2-2.6,0.7-2.6,0.7C40.3,34,40,34,39.7,34c-0.3-0.1-0.5-0.3-0.6-0.6C38.1,30.8,35.7,29,33,29 c-2-0.1-4,0.9-5.2,2.6c-0.2,0.2-0.4,0.4-0.7,0.4c-0.3,0-0.6-0.1-0.8-0.3c-0.1-0.1-1.9-1.6-4.8,0.1c-1.3,0.8-2,2.4-1.6,3.9 c0.1,0.3,0,0.6-0.2,0.9S19.3,37,19,37c0,0-3,0.2-3,2c0,0.9,0.2,1.6,0.7,2.1c0.6,0.6,1.8,1,3.3,0.9c2.5-0.1,14.3,0,20,0l3.1,0 c0.9,0,1.7-0.2,2.4-0.8c0.4-0.4,1.1-0.3,1.4,0.1c0.4,0.4,0.3,1.1-0.1,1.4C45.7,43.6,44.5,44,43.2,44z"/>
</svg>