<svg id="communication" xmlns="http://www.w3.org/2000/svg" xmlns:xlink="http://www.w3.org/1999/xlink" viewBox="0 0 50 35">
  <circle cx="19" cy="7" r="1"/>
  <circle cx="25" cy="7" r="1"/>
  <circle cx="31" cy="7" r="1"/>
  <g>
    <path d="M9.3,27.3c1-0.7,1.7-1.9,1.7-3.3c0-2.2-1.8-4-4-4s-4,1.8-4,4c0,1.4,0.7,2.6,1.8,3.3C-0.4,28.8,0,35,0,35h14 C14,35,14.4,28.7,9.3,27.3z M7,22c1.1,0,2,0.9,2,2c0,1.1-0.9,2-2,2s-2-0.9-2-2C5,22.9,5.9,22,7,22z M2.2,33 c0.2-0.9,0.5-1.9,1.3-2.7C4.2,29.4,5.4,29,7,29l0.1,0l0-1h0v1c1.5,0,2.7,0.4,3.5,1.3c0.7,0.8,1.1,1.8,1.3,2.7H2.2z"/>
    <path d="M27.3,27.3c1-0.7,1.7-1.9,1.7-3.3c0-2.2-1.8-4-4-4s-4,1.8-4,4c0,1.4,0.7,2.6,1.8,3.3C17.6,28.8,18,35,18,35h14 C32,35,32.4,28.7,27.3,27.3z M25,22c1.1,0,2,0.9,2,2c0,1.1-0.9,2-2,2s-2-0.9-2-2C23,22.9,23.9,22,25,22z M20.2,33 c0.2-0.9,0.5-1.9,1.3-2.7c0.8-0.9,2-1.3,3.6-1.3l0.1,0l0-1h0v1c1.5,0,2.7,0.4,3.5,1.3c0.7,0.8,1.1,1.8,1.3,2.7H20.2z"/>
    <path d="M45.3,27.3c1-0.7,1.7-1.9,1.7-3.3c0-2.2-1.8-4-4-4s-4,1.8-4,4c0,1.4,0.7,2.6,1.8,3.3C35.6,28.8,36,35,36,35h14 C50,35,50.4,28.7,45.3,27.3z M43,22c1.1,0,2,0.9,2,2c0,1.1-0.9,2-2,2s-2-0.9-2-2C41,22.9,41.9,22,43,22z M38.2,33 c0.2-0.9,0.5-1.9,1.3-2.7c0.8-0.9,2-1.3,3.6-1.3l0.1,0l0-1h0v1c1.5,0,2.7,0.4,3.5,1.3c0.7,0.8,1.1,1.8,1.3,2.7H38.2z"/>
  </g>
  <g>
    <path d="M45,2c1.7,0,3,1.3,3,3v4c0,1.7-1.3,3-3,3h-1h-2v2l-2.1-1.6L39.3,12h-0.7H27.9h-1l-0.6,0.8L25,14.6l-1.2-1.7 L23.2,12h-1H11.3h-0.7l-0.5,0.4L8,14v-2H6H5c-1.7,0-3-1.3-3-3V5c0-1.7,1.3-3,3-3H45 M45,0H5C2.2,0,0,2.2,0,5v4c0,2.8,2.2,5,5,5h1v4 l5.3-4h10.8l2.9,4l2.9-4h10.8l5.3,4v-4h1c2.8,0,5-2.2,5-5V5C50,2.2,47.8,0,45,0L45,0z"/>
  </g>
</svg>
