<?xml version="1.0" encoding="utf-8"?>
<!-- Generator: Adobe Illustrator 21.0.0, SVG Export Plug-In . SVG Version: 6.00 Build 0)  -->
<svg version="1.1" id="icon_edit" xmlns="http://www.w3.org/2000/svg" xmlns:xlink="http://www.w3.org/1999/xlink" x="0px" y="0px"
	 viewBox="0 0 24 24" style="enable-background:new 0 0 24 24;" xml:space="preserve">
<style type="text/css">
	.st0{fill:#16263B;}
</style>
<path class="st0" d="M22.8,5.3L20,2.5l-1.4-1.4L7.3,12.3L7,16.9l0,0l0,0l4.6-0.3l9.9-9.9l0,0L22.8,5.3z M10.2,15.1l-1.6,0.2l0.2-1.6
	l9.8-9.8L20,5.3L10.2,15.1z"/>
<polygon class="st0" points="17,15 17,21 3,21 3,5 10,5 10,3 3,3 1,3 1,5 1,21 1,23 3,23 17,23 19,23 19,21 19,15 "/>
</svg>
