<svg id="electric-doc" xmlns="http://www.w3.org/2000/svg" xmlns:xlink="http://www.w3.org/1999/xlink" viewBox="0 0 49 51">
  <path d="M10,7v3H7V7H10 M11,5H6C5.4,5,5,5.4,5,6v5c0,0.6,0.4,1,1,1h5 c0.6,0,1-0.4,1-1V6C12,5.4,11.6,5,11,5L11,5z"/>
  <path d="M15,6h10c0.6,0,1,0.4,1,1l0,0c0,0.6-0.4,1-1,1H15 c-0.6,0-1-0.4-1-1l0,0C14,6.4,14.4,6,15,6z"/>
  <path d="M15,9h4c0.6,0,1,0.4,1,1l0,0 c0,0.6-0.4,1-1,1h-4c-0.6,0-1-0.4-1-1l0,0C14,9.4,14.4,9,15,9z"/>
  <path d="M29,25v2h20V9.6L38.9,0H0v27h23v3H8H6v2v2h2v-2h33v2h2v-2v-2h-2H25v-5h-0.8v0H2V2h35v9h10v14H29z M39,9V2.9 L45.5,9H39z"/>
  <path d="M15,15h25c0.6,0,1,0.4,1,1l0,0c0,0.6-0.4,1-1,1H15 c-0.6,0-1-0.4-1-1l0,0C14,15.4,14.4,15,15,15z"/>
  <path d="M15,19h15c0.6,0,1,0.4,1,1l0,0 c0,0.6-0.4,1-1,1H15c-0.6,0-1-0.4-1-1l0,0C14,19.4,14.4,19,15,19z"/>
  <path d="M9.2,38l2.8,2.8V49H4V38H9.2 M10.1,36H2v15h12V40L10.1,36L10.1,36z"/>
  <path d="M6,41h4c0.6,0,1,0.4,1,1l0,0c0,0.6-0.4,1-1,1H6 c-0.6,0-1-0.4-1-1l0,0C5,41.4,5.4,41,6,41z"/>
  <path d="M6,45h4c0.6,0,1,0.4,1,1l0,0 c0,0.6-0.4,1-1,1H6c-0.6,0-1-0.4-1-1l0,0C5,45.4,5.4,45,6,45z"/>
  <path d="M26.2,38l2.8,2.8V49h-8V38H26.2 M27.1,36H19v15h12V40 L27.1,36L27.1,36z"/>
  <path d="M23,41h4c0.6,0,1,0.4,1,1l0,0 c0,0.6-0.4,1-1,1h-4c-0.6,0-1-0.4-1-1l0,0C22,41.4,22.4,41,23,41z"/>
  <path d="M23,45h4c0.6,0,1,0.4,1,1l0,0 c0,0.6-0.4,1-1,1h-4c-0.6,0-1-0.4-1-1l0,0C22,45.4,22.4,45,23,45z"/>
  <path d="M43.2,38l2.8,2.8V49h-8V38H43.2 M44.1,36H36v15h12V40 L44.1,36L44.1,36z"/>
  <path d="M40,41h4c0.6,0,1,0.4,1,1l0,0 c0,0.6-0.4,1-1,1h-4c-0.6,0-1-0.4-1-1l0,0C39,41.4,39.4,41,40,41z"/>
  <path d="M40,45h4c0.6,0,1,0.4,1,1l0,0 c0,0.6-0.4,1-1,1h-4c-0.6,0-1-0.4-1-1l0,0C39,45.4,39.4,45,40,45z"/>
</svg>
