<?xml version="1.0" encoding="utf-8"?>
<!-- Generator: Adobe Illustrator 21.0.0, SVG Export Plug-In . SVG Version: 6.00 Build 0)  -->
<svg version="1.1" id="Layer_1" xmlns="http://www.w3.org/2000/svg" xmlns:xlink="http://www.w3.org/1999/xlink" x="0px" y="0px"
	 viewBox="0 0 24 24" style="enable-background:new 0 0 24 24;" xml:space="preserve">
<style type="text/css">
	.st0{fill:#00A9FC;}
</style>
<polygon class="st0" points="16.3,7 15,8.6 18.1,11 8,11 8,13 17.7,13 15.1,15.5 16.3,17 22,12 "/>
<polygon class="st0" points="16,2 4,2 2,2 2,4 2,20 2,22 4,22 16,22 18,22 18,20 18,19 16,19 16,20 4,20 4,4 16,4 16,5 18,5 18,4 
	18,2 "/>
</svg>
