<svg id="expansion-cards" xmlns="http://www.w3.org/2000/svg" xmlns:xlink="http://www.w3.org/1999/xlink" viewBox="0 0 70 66">
  <g>
    <path d="M58,15c0.6,0,1-0.4,1-1c0-0.6-0.4-1-1-1h-1c0-1.1-0.9-2-2-2v-1c0-0.6-0.4-1-1-1s-1,0.4-1,1v1h-2v-1 c0-0.6-0.4-1-1-1s-1,0.4-1,1v1c-1.1,0-2,0.9-2,2h-1c-0.6,0-1,0.4-1,1c0,0.6,0.4,1,1,1h1v2h-1c-0.6,0-1,0.4-1,1c0,0.6,0.4,1,1,1h1 c0,1.1,0.9,2,2,2v1c0,0.6,0.4,1,1,1s1-0.4,1-1v-1h2v1c0,0.6,0.4,1,1,1s1-0.4,1-1v-1c1.1,0,2-0.9,2-2h1c0.6,0,1-0.4,1-1 c0-0.6-0.4-1-1-1h-1v-2H58z M55,19h-6v-6h6V19z"/>
    <path d="M67,4H12c0-1.1-0.9-2-2-2H8H2C0.9,2,0,2.9,0,4v2c0,1.1,0.9,2,2,2h4v16H2c-1.1,0-2,0.9-2,2v2c0,1.1,0.9,2,2,2 v16c-1.1,0-2,0.9-2,2v2c0,1.1,0.9,2,2,2h4v9c0,1.1,0.9,2,2,2h2c1.1,0,2-0.9,2-2v-6h6c1.1,0,2-0.9,2-2v-3h8v3c0,1.1,0.9,2,2,2h18 c1.1,0,2-0.9,2-2v-3h3v3c0,1.1,0.9,2,2,2h8c1.1,0,2-0.9,2-2v-3h2c1.1,0,2-0.9,2-2v-5v-3V24V11V6C69,4.9,68.1,4,67,4z M6,50H2v-2h2 h2V50z M6,46H4V30h2V46z M6,28H4H2v-2h4V28z M10,6v21v16v5v1v4v8H8V50v-2v-2V30v-2v-2V8V6H6H2V4h6h2V6z M66,14h-2v-3h2V14z M64,16 h2v3h-2V16z M13,27h5v16h-5V27z M18,53h-6v-3h6V53z M30,53v-3h3v3H30z M35,53v-3h3v3H35z M40,53v-3h3v3H40z M48,53h-3v-3h3V53z M55,53v-3h3v3H55z M63,53h-3v-3h3V53z M66,43h-2v-3h2V43z M66,38h-2c-1.1,0-2,0.9-2,2v3c0,1.1,0.9,2,2,2h2v2h-3h-8h-7H30H18h-5v-2 h5c1.1,0,2-0.9,2-2V27c0-1.1-0.9-2-2-2h-5V7h53v2h-2c-1.1,0-2,0.9-2,2v13c0,1.1,0.9,2,2,2h2V38z M66,24h-2v-3h2V24z"/>
    <path d="M35,9H17c-1.1,0-2,0.9-2,2v10c0,1.1,0.9,2,2,2h18c1.1,0,2-0.9,2-2V11C37,9.9,36.1,9,35,9z M35,11v4h-3v-4H35z M30,11v4h-3v-4H30z M25,11v4h-3v-4H25z M17,11h3v4h-3V11z M17,21v-4h3v4H17z M22,21v-4h3v4H22z M27,21v-4h3v4H27z M35,21h-3v-4h3 V21z"/>
    <path d="M35,30c0.6,0,1-0.4,1-1c0-0.6-0.4-1-1-1h-1v-1c0-1.1-0.9-2-2-2h-6c-1.1,0-2,0.9-2,2v1h-1c-0.6,0-1,0.4-1,1 c0,0.6,0.4,1,1,1h1v2h-1c-0.6,0-1,0.4-1,1c0,0.6,0.4,1,1,1h1v2h-1c-0.6,0-1,0.4-1,1c0,0.6,0.4,1,1,1h1v2h-1c-0.6,0-1,0.4-1,1 c0,0.6,0.4,1,1,1h1v1c0,1.1,0.9,2,2,2h6c1.1,0,2-0.9,2-2v-1h1c0.6,0,1-0.4,1-1c0-0.6-0.4-1-1-1h-1v-2h1c0.6,0,1-0.4,1-1 c0-0.6-0.4-1-1-1h-1v-2h1c0.6,0,1-0.4,1-1c0-0.6-0.4-1-1-1h-1v-2H35z M32,34h-6v-2h6V34z M26,36h6v2h-6V36z M26,27h6v3h-6V27z M32,43h-6v-3h6V43z"/>
    <path d="M57,33c0.6,0,1-0.4,1-1c0-0.6-0.4-1-1-1h-1c0-1.1-0.9-2-2-2h-1v-1c0-0.6-0.4-1-1-1s-1,0.4-1,1v1h-2v-1 c0-0.6-0.4-1-1-1s-1,0.4-1,1v1h-2v-1c0-0.6-0.4-1-1-1s-1,0.4-1,1v1h-1c-1.1,0-2,0.9-2,2h-1c-0.6,0-1,0.4-1,1c0,0.6,0.4,1,1,1h1v2 h-1c-0.6,0-1,0.4-1,1c0,0.6,0.4,1,1,1h1v2h-1c-0.6,0-1,0.4-1,1c0,0.6,0.4,1,1,1h1c0,1.1,0.9,2,2,2h1v1c0,0.6,0.4,1,1,1s1-0.4,1-1 v-1h2v1c0,0.6,0.4,1,1,1s1-0.4,1-1v-1h2v1c0,0.6,0.4,1,1,1s1-0.4,1-1v-1h1c1.1,0,2-0.9,2-2h1c0.6,0,1-0.4,1-1c0-0.6-0.4-1-1-1h-1 v-2h1c0.6,0,1-0.4,1-1c0-0.6-0.4-1-1-1h-1v-2H57z M54,41H42V31h12V41z"/>
  </g>
</svg>
