<svg id="goverment-systems" xmlns="http://www.w3.org/2000/svg" xmlns:xlink="http://www.w3.org/1999/xlink" viewBox="0 0 55 52">
  <path d="M49.4,40c0.3-0.6,0.6-1.3,0.6-2V18c0-2.2-1.8-4-4-4h-2.9v2H46c1.1,0,2,0.9,2,2v20c0,1.1-0.9,2-2,2H7 c-1.1,0-2-0.9-2-2V18c0-1.1,0.9-2,2-2h2.9v-2H7c-2.2,0-4,1.8-4,4v20c0,0.7,0.2,1.4,0.6,2H1v4c0,1.7,1.3,3,3,3h45c1.7,0,3-1.3,3-3v-4 H49.4z M50,44c0,0.6-0.4,1-1,1H4c-0.6,0-1-0.4-1-1v-2h47V44z"/>
  <path d="M35.2,6c0,0-0.1,0-0.2,0c-4.7,0-11.2,3-16.1,3c-1.7-0.1-3.4-0.6-4.9-1.5V6c0-0.6-0.4-1-1-1s-1,0.4-1,1l0,0v0v20 v9c0,0.6,0.4,1,1,1s1-0.4,1-1v-7.5c1.6,0.9,3.3,1.4,5.1,1.5c4.6,0,10.6-3,15.1-3c0,0,0.1,0,0.1,0c2.2,0,4.4,0.3,6.6,1V7 C39.1,6.3,37.1,6,35.2,6z M39,24.4c-1.5-0.3-3-0.4-4.6-0.4l-0.1,0c-2.5,0-5.3,0.8-8,1.6c-2.5,0.7-5,1.4-7,1.4 c-1.9-0.1-3.7-0.8-5.2-1.9V21c1.8,1.2,3.9,1.9,6,2c4.6,0,10.5-3,14.8-3c1.5,0,2.9,0.3,4.3,1V24.4z M39,19c-1.3-0.7-2.7-1-4.2-1 c-4.2,0-10.6,3-15.2,3c-2.1,0-4-0.7-5.7-2v-4c1.7,1.1,3.8,1.8,5.8,2c5,0,11.6-3,15.9-3c1.2,0,2.3,0.3,3.3,1V19z M39,13 c-1-0.7-2.1-1-3.3-1c-4.3,0-10.9,3-15.9,3c-2.1-0.2-4.1-0.9-5.8-2V9.8c1.5,0.7,3.1,1.1,4.8,1.2l0.1,0h0.1c2.7,0,5.8-0.8,8.8-1.6 C30.2,8.7,32.9,8,35,8l0.1,0c1.3,0,2.6,0.2,3.8,0.5V13z"/>
</svg>