<svg id="hard-disk" xmlns="http://www.w3.org/2000/svg" xmlns:xlink="http://www.w3.org/1999/xlink" viewBox="0 0 70 66">
  <path d="M54,5c1.1,0,2,0.9,2,2v53c0,1.1-0.9,2-2,2H17
	c-1.1,0-2-0.9-2-2V7c0-1.1,0.9-2,2-2H54 M54,2H17c-2.8,0-5,2.2-5,5v53c0,2.8,2.2,5,5,5h37c2.8,0,5-2.2,5-5V7C59,4.2,56.8,2,54,2
	L54,2z"/>
  <circle cx="52.5" cy="8.5" r="1.5"/>
  <circle cx="52.5" cy="58.5" r="1.5"/>
  <circle cx="18.5" cy="8.5" r="1.5"/>
  <circle cx="36" cy="25" r="1"/>
  <path d="M36,22c1.7,0,3,1.3,3,3s-1.3,3-3,3s-3-1.3-3-3 S34.3,22,36,22 M52,49v5H40v-5H52 M36,19c-3.3,0-6,2.7-6,6c0,3.3,2.7,6,6,6s6-2.7,6-6C42,21.7,39.3,19,36,19L36,19z M52,47H40 c-1.1,0-2,0.9-2,2v5c0,1.1,0.9,2,2,2h12c1.1,0,2-0.9,2-2v-5C54,47.9,53.1,47,52,47L52,47z"/>
  <path d="M25,26h-2c0-7.2,5.8-13,13-13v2C29.9,15,25,19.9,25,26z"/>
  <path d="M35.6,39.8c-1.9,5.2-3.9,9.9-4.8,10.9l0,0l0,0c-0.7,0.8-1.8,1.3-2.9,1.3 c-0.9,0-1.9-0.3-2.6-1c-1.6-1.4-1.8-3.9-0.3-5.5c0,0,0.1-0.1,0.1-0.1l0,0l0,0C26,44.4,30.5,42.1,35.6,39.8 M40.5,34.5 c0,0-15.1,6.2-17.6,9c-0.1,0.1-0.1,0.1-0.2,0.2c-2.5,2.8-2.2,7.1,0.6,9.6c1.3,1.1,2.9,1.7,4.5,1.7c1.9,0,3.7-0.8,5.1-2.3 C35.4,49.9,40.5,34.5,40.5,34.5L40.5,34.5z"/>
  <path d="M35,49.6v7.6c0,1.6-1.3,2.8-2.8,2.8H19.8 c-1.6,0-2.8-1.3-2.8-2.8V44.8c0-1.6,1.3-2.8,2.8-2.8h8.5c0.8,0-2.4,2-2.4,2h-6c-0.5,0.1-1,0.5-1,1c0,2.7,0,9,0,12c0,0.5,0.5,1,1,1 c2,0,9.5,0,12,0c0.6,0,1-0.4,1-1c0,0,0-6,0-6S35,48.8,35,49.6z"/>
  <path d="M41.7,9.2c-2-0.8-4.2-1.2-6.2-1.2c-7.1,0-13.7,4.3-16.4,11.3c-3.4,8.9,1,18.9,9.7,22.4l3.8-2.4L30.1,39 c-3.5-1.4-6.2-4.1-7.8-7.5c-1.6-3.5-1.7-7.5-0.3-11.1c2.1-5.6,7.6-9.4,13.6-9.4c1.8,0,3.5,0.3,5.2,1c3.6,1.4,6.5,4.1,8.1,7.6 c1.6,3.5,1.7,7.5,0.3,11.1c-1.8,4.7-6,8.2-10.9,9.1L36.4,43l0.3,0c6.8-0.5,12.7-4.9,15.1-11.2C55.3,22.7,50.8,12.6,41.7,9.2z"/>
</svg>
