<svg id="complect" xmlns="http://www.w3.org/2000/svg" xmlns:xlink="http://www.w3.org/1999/xlink" viewBox="0 0 70 66">
  <circle cx="35.5" cy="8.5" r="1.5"/>
  <path d="M34.5,20h17c0.8,0,1.5,0.7,1.5,1.5l0,0 c0,0.8-0.7,1.5-1.5,1.5h-17c-0.8,0-1.5-0.7-1.5-1.5l0,0C33,20.7,33.7,20,34.5,20z"/>
  <path d="M34.5,25h7c0.8,0,1.5,0.7,1.5,1.5l0,0 c0,0.8-0.7,1.5-1.5,1.5h-7c-0.8,0-1.5-0.7-1.5-1.5l0,0C33,25.7,33.7,25,34.5,25z"/>
  <path d="M46.5,25h1c0.8,0,1.5,0.7,1.5,1.5l0,0 c0,0.8-0.7,1.5-1.5,1.5h-1c-0.8,0-1.5-0.7-1.5-1.5l0,0C45,25.7,45.7,25,46.5,25z"/>
  <path d="M18.9,28.5l-3-3c-0.6-0.6-0.6-1.5,0-2.1c0.6-0.6,1.5-0.6,2.1,0l1,1l5.9-5.1c0.6-0.5,1.6-0.5,2.1,0.2 c0.5,0.6,0.5,1.6-0.2,2.1L18.9,28.5z"/>
  <path d="M34.5,35h17c0.8,0,1.5,0.7,1.5,1.5l0,0 c0,0.8-0.7,1.5-1.5,1.5h-17c-0.8,0-1.5-0.7-1.5-1.5l0,0C33,35.7,33.7,35,34.5,35z"/>
  <path d="M34.5,40h7c0.8,0,1.5,0.7,1.5,1.5l0,0 c0,0.8-0.7,1.5-1.5,1.5h-7c-0.8,0-1.5-0.7-1.5-1.5l0,0C33,40.7,33.7,40,34.5,40z"/>
  <path d="M46.5,40h1c0.8,0,1.5,0.7,1.5,1.5l0,0 c0,0.8-0.7,1.5-1.5,1.5h-1c-0.8,0-1.5-0.7-1.5-1.5l0,0C45,40.7,45.7,40,46.5,40z"/>
  <path d="M18.9,43.5l-3-3c-0.6-0.6-0.6-1.5,0-2.1s1.5-0.6,2.1,0l1,1l5.9-5.1c0.6-0.5,1.6-0.5,2.1,0.2 c0.5,0.6,0.5,1.6-0.2,2.1L18.9,43.5z"/>
  <path d="M34.5,49h17c0.8,0,1.5,0.7,1.5,1.5 l0,0c0,0.8-0.7,1.5-1.5,1.5h-17c-0.8,0-1.5-0.7-1.5-1.5l0,0C33,49.7,33.7,49,34.5,49z"/>
  <path d="M34.5,54h7c0.8,0,1.5,0.7,1.5,1.5l0,0 c0,0.8-0.7,1.5-1.5,1.5h-7c-0.8,0-1.5-0.7-1.5-1.5l0,0C33,54.7,33.7,54,34.5,54z"/>
  <path d="M46.5,54h1c0.8,0,1.5,0.7,1.5,1.5l0,0 c0,0.8-0.7,1.5-1.5,1.5h-1c-0.8,0-1.5-0.7-1.5-1.5l0,0C45,54.7,45.7,54,46.5,54z"/>
  <path d="M18.9,57.5l-3-3c-0.6-0.6-0.6-1.5,0-2.1s1.5-0.6,2.1,0l1,1l5.9-5.1c0.6-0.5,1.6-0.5,2.1,0.2 c0.5,0.6,0.5,1.6-0.2,2.1L18.9,57.5z"/>
  <path d="M57,8h-9c-1.3-1.8-3.6-4-6-4h-1c-1.2-1.8-2.7-3-5-3s-4.8,1.2-6,3h-1c-2.4,0-4.7,2.2-6,4h-8c-2.8,0-5,1.7-5,4.5 v47c0,2.8,2.2,5.5,5,5.5h42c2.8,0,4-2.7,4-5.5v-47C61,9.7,59.8,8,57,8z M29,7h1h2c0,0,0-3,4-3c3,0,3,3,3,3h2h1c2.2,0,4,2.8,4,5H25 C25,9.8,26.8,7,29,7z M58,59.5c0,1.1-0.9,2.5-2,2.5H15c-1.1,0-2-1.4-2-2.5V13c0-1.1,0.9-2,2-2h7c0,0.3,0,4,0,4h27c0,0,0-3.7,0-4h7 c1.1,0,2,0.9,2,2V59.5z"/>
</svg>
