<?xml version="1.0" encoding="utf-8"?>
<!-- Generator: Adobe Illustrator 21.0.0, SVG Export Plug-In . SVG Version: 6.00 Build 0)  -->
<svg version="1.1" id="Layer_1" xmlns="http://www.w3.org/2000/svg" xmlns:xlink="http://www.w3.org/1999/xlink" x="0px" y="0px"
	 viewBox="0 0 24 24" style="enable-background:new 0 0 24 24;" xml:space="preserve">
<style type="text/css">
	.st0{fill:#FFFFFF;}
</style>
<g>
	<g>
		<path class="st0" d="M10.2,11.8c0.5,0.2,1.2,0.4,1.8,0.4c0.6,0,1.1-0.1,1.6-0.3c3.5,1,4.3,5.1,4.4,8c-1,0.4-3.3,0.8-5.8,0.8
			l-0.2,0c-2.8,0-5-0.4-6-0.8C6,15.1,7.4,12.5,10.2,11.8 M10.5,9.7C3.5,10.6,4,19.2,4,20.9c0,0.9,3.9,1.8,8,1.8c0.1,0,0.1,0,0.2,0
			c3.8,0,7.8-1,7.8-1.9c0-0.9,0.3-9.8-6.6-11C13,10,12.6,10.2,12,10.2c0,0,0,0,0,0C11.4,10.2,10.8,9.9,10.5,9.7L10.5,9.7z"/>
	</g>
</g>
<g>
	<path class="st0" d="M12,3.2c1.7,0,3,1.6,3,3.5s-1.3,3.5-3,3.5S9,8.6,9,6.7S10.3,3.2,12,3.2 M12,1.2c-2.8,0-5,2.5-5,5.5
		s2.2,5.5,5,5.5s5-2.5,5-5.5S14.8,1.2,12,1.2L12,1.2z"/>
</g>
</svg>
