<svg id="processor" xmlns="http://www.w3.org/2000/svg" xmlns:xlink="http://www.w3.org/1999/xlink" viewBox="0 0 70 66">
  <path d="M42,25v15H27V25H42 M42,22H27 c-1.7,0-3,1.3-3,3v15c0,1.7,1.3,3,3,3h15c1.7,0,3-1.3,3-3V25C45,23.3,43.7,22,42,22L42,22z"/>
  <path d="M67.2,16c0.5,0,0.8-0.4,0.8-0.8v-1.3c0-0.5-0.4-0.8-0.8-0.8h-5.6c-1.1-3.4-4-6.1-7.5-6.8V0.8 C54,0.4,53.6,0,53.2,0h-1.3C51.4,0,51,0.4,51,0.8V6h-6V0.8C45,0.4,44.6,0,44.2,0h-1.3C42.4,0,42,0.4,42,0.8V6h-6V0.8 C36,0.4,35.6,0,35.2,0h-1.3C33.4,0,33,0.4,33,0.8V6h-6V0.8C27,0.4,26.6,0,26.2,0h-1.3C24.4,0,24,0.4,24,0.8V6h-6V0.8 C18,0.4,17.6,0,17.2,0h-1.3C15.4,0,15,0.4,15,0.8v5.6c-3.1,1-5.6,3.4-6.5,6.5H2.8C2.4,13,2,13.4,2,13.8v1.3C2,15.6,2.4,16,2.8,16H8 v6H2.8C2.4,22,2,22.4,2,22.8v1.3C2,24.6,2.4,25,2.8,25H8v6H2.8C2.4,31,2,31.4,2,31.8v1.3C2,33.6,2.4,34,2.8,34H8v6H2.8 C2.4,40,2,40.4,2,40.8v1.3C2,42.6,2.4,43,2.8,43H8v6H2.8C2.4,49,2,49.4,2,49.8v1.3C2,51.6,2.4,52,2.8,52h5.4 c0.7,3.6,3.4,6.5,6.8,7.5v5.6c0,0.5,0.4,0.8,0.8,0.8h1.3c0.5,0,0.8-0.4,0.8-0.8V60h6v5.2c0,0.5,0.4,0.8,0.8,0.8h1.3 c0.5,0,0.8-0.4,0.8-0.8V60h6v5.2c0,0.5,0.4,0.8,0.8,0.8h1.3c0.5,0,0.8-0.4,0.8-0.8V60h6v5.2c0,0.5,0.4,0.8,0.8,0.8h1.3 c0.5,0,0.8-0.4,0.8-0.8V60h6v5.2c0,0.5,0.4,0.8,0.8,0.8h1.3c0.5,0,0.8-0.4,0.8-0.8v-5.4c3.9-0.8,7-3.9,7.8-7.8h5.4 c0.5,0,0.8-0.4,0.8-0.8v-1.3c0-0.5-0.4-0.8-0.8-0.8H62v-6h5.2c0.5,0,0.8-0.4,0.8-0.8v-1.3c0-0.5-0.4-0.8-0.8-0.8H62v-6h5.2 c0.5,0,0.8-0.4,0.8-0.8v-1.3c0-0.5-0.4-0.8-0.8-0.8H62v-6h5.2c0.5,0,0.8-0.4,0.8-0.8v-1.3c0-0.5-0.4-0.8-0.8-0.8H62v-6H67.2z M59,50 c0,3.9-3.1,7-7,7H18c-3.9,0-7-3.1-7-7V16c0-3.9,3.1-7,7-7h34c3.9,0,7,3.1,7,7V50z"/>
  <circle cx="34.5" cy="16.5" r="1.5"/>
  <circle cx="43.5" cy="16.5" r="1.5"/>
  <circle cx="25.5" cy="16.5" r="1.5"/>
  <circle cx="34.5" cy="48.5" r="1.5"/>
  <circle cx="43.5" cy="48.5" r="1.5"/>
  <circle cx="25.5" cy="48.5" r="1.5"/>
  <circle cx="18.5" cy="32.5" r="1.5"/>
  <circle cx="18.5" cy="23.5" r="1.5"/>
  <circle cx="18.5" cy="41.5" r="1.5"/>
  <circle cx="50.5" cy="32.5" r="1.5"/>
  <circle cx="50.5" cy="23.5" r="1.5"/>
  <circle cx="50.5" cy="41.5" r="1.5"/>
</svg>
