<?xml version="1.0" encoding="utf-8"?>
<!-- Generator: Adobe Illustrator 21.0.0, SVG Export Plug-In . SVG Version: 6.00 Build 0)  -->
<svg version="1.1" id="Layer_1" xmlns="http://www.w3.org/2000/svg" xmlns:xlink="http://www.w3.org/1999/xlink" x="0px" y="0px"
	 viewBox="0 0 24 24" style="enable-background:new 0 0 24 24;" xml:space="preserve">
<style type="text/css">
	.st0{fill:#FFFFFF;}
</style>
<path class="st0" d="M21.9,19.7l-6-6c0.8-1.2,1.2-2.6,1.2-4.1c0-4.1-3.4-7.5-7.5-7.5S2.1,5.5,2.1,9.6s3.4,7.5,7.5,7.5
	c1.5,0,3-0.5,4.2-1.3l6,6L21.9,19.7z M4.1,9.6c0-3,2.5-5.5,5.5-5.5c3,0,5.5,2.5,5.5,5.5c0,3-2.5,5.5-5.5,5.5
	C6.6,15.1,4.1,12.7,4.1,9.6z"/>
</svg>
